<svg width="43" height="36" viewBox="0 0 43 36" fill="none" xmlns="http://www.w3.org/2000/svg">
<path d="M26.8078 0C27.2335 0.0424422 27.6734 0.0707369 28.0992 0.127326C31.647 0.580043 34.6982 2.06552 37.2101 4.5979C39.5942 7.00296 41.0276 9.88902 41.5101 13.242C41.9358 16.2553 41.4959 19.1414 40.2045 21.9002C40.1761 21.9709 40.1051 22.0558 40.0342 22.0841C39.0408 22.5651 38.3028 23.3149 37.65 24.1637C36.9262 25.1116 36.2167 26.0736 35.4929 27.0074C35.0104 27.6298 34.4428 28.1674 33.7616 28.5636C33.1088 28.9456 32.4134 29.0163 31.718 28.7899C31.0635 28.5817 30.409 28.319 29.7679 28.0819C29.7458 28.0738 29.7316 28.0528 29.7373 28.03C29.7439 28.0035 29.765 27.9801 29.7919 27.9756C30.1028 27.9229 30.4137 27.8818 30.7246 27.8279C31.5335 27.6864 32.3424 27.4742 33.0804 27.0781C35.2091 25.9463 35.4361 23.1027 33.4919 21.6455C33.0235 21.2823 32.7596 20.7303 32.8466 20.1439C32.9078 19.7308 32.9385 19.311 32.9385 18.8868C32.9385 17.7833 32.683 16.7505 31.9451 15.8734C31.4484 15.2792 30.8239 14.8689 30.1144 14.6001C29.1068 14.2323 28.085 13.8927 27.0774 13.5532C26.9705 13.5265 26.9071 13.427 26.9071 13.3168C26.9071 11.8993 26.9071 10.4874 26.9071 9.07346C26.9071 7.93106 27.9647 6.91249 28.8758 7.6016C28.9851 7.68428 29.0906 7.77678 29.1919 7.8801C29.5384 8.23352 29.7659 8.64167 29.9161 9.08383C30.1151 9.67004 30.6095 10.1437 31.2286 10.1437C31.9162 10.1437 32.4863 9.56953 32.3348 8.8988C32.2146 8.36731 32.0169 7.86008 31.718 7.38494C30.9375 6.13997 29.7738 5.46089 28.3688 5.14965C28.1365 5.09517 27.9043 5.0538 27.6688 5.01607C27.2214 4.94438 26.8929 4.56281 26.8929 4.1097C26.8929 4.01434 26.8929 3.91839 26.8929 3.82179C26.8929 3.46909 26.6017 3.18316 26.249 3.18316C25.8963 3.18316 25.6157 3.46908 25.6157 3.82178C25.6157 3.91384 25.6157 4.00591 25.6157 4.09797C25.6157 4.56687 25.2604 4.95282 24.7943 5.00376C24.6693 5.01742 24.5457 5.03258 24.4236 5.05062C21.6989 5.44674 19.6837 7.99327 19.9249 10.7237C20.0243 11.8697 20.3507 12.8883 21.188 13.723C21.8833 14.4162 22.749 14.8548 23.6715 15.166C24.2533 15.3499 24.8493 15.4914 25.4454 15.647C25.5455 15.672 25.6157 15.7618 25.6157 15.865C25.6157 17.0811 25.6157 18.2911 25.6157 19.5149C25.6157 20.2555 24.9851 20.8965 24.2533 20.7825C23.6289 20.6976 23.0045 20.5703 22.3658 20.4713C22.2097 20.443 22.153 20.3722 22.1388 20.2308C22.1077 20.0344 22.0766 19.8381 22.0455 19.6403C21.9505 19.0366 21.4314 18.5897 20.8203 18.5897C20.5791 18.5897 20.3353 18.5897 20.0887 18.5897C19.7897 18.5897 19.5512 18.8378 19.5669 19.1363C19.5849 19.4778 19.2763 19.7389 18.9427 19.664C18.6867 19.6065 18.4331 19.5487 18.1794 19.4951C16.9873 19.2546 15.8094 19.0707 14.5889 19.1556C13.6097 19.2263 12.6731 19.4668 11.7507 19.7922C11.5989 19.8426 11.4334 19.7546 11.3942 19.5995C11.2876 19.1772 11.1787 18.7608 11.0979 18.335C9.59357 11.0916 13.5672 3.83394 20.521 1.08935C22.0678 0.481011 23.6715 0.127326 25.346 0.0424422C25.4312 0.0424422 25.5021 0.0141474 25.5873 0.0141474C25.9847 0 26.3962 0 26.8078 0Z" fill="#6484FF"/>
<path d="M26.7082 27.1912C26.4346 27.2153 26.3747 27.6713 26.6287 27.7758C27.8773 28.2899 29.0531 28.9529 30.3129 29.4407C30.8521 29.6529 31.4198 29.8085 31.9875 29.9358C32.8815 30.1198 33.6904 29.851 34.4568 29.3841C35.3508 28.8182 36.0462 28.0542 36.6848 27.2337C37.3518 26.3565 38.0046 25.4653 38.6858 24.6023C39.3386 23.7534 40.1475 23.1168 41.1693 22.7631C41.3396 22.7065 41.5241 22.6499 41.6944 22.6216C42.4749 22.4802 42.9858 22.8904 43 23.6827C43 23.9656 42.9858 24.2486 42.9149 24.5315C42.4323 26.4697 41.8221 28.3655 40.8713 30.1481C40.0908 31.6052 39.0974 32.8926 37.7492 33.883C36.6848 34.6611 35.4644 35.0713 34.2013 35.3967C31.8881 35.9909 29.5323 36.09 27.1624 35.9343C25.0337 35.7929 22.9191 35.4675 20.8046 35.1421C18.8036 34.8308 16.8168 34.5054 14.8016 34.4064C12.6871 34.2932 10.5868 34.3923 8.57162 35.1704C8.48045 35.2057 8.38973 35.2429 8.29931 35.2813C7.53962 35.6045 6.66778 35.4654 6.08353 34.8821C4.16829 32.9701 2.25044 31.0486 0.314441 29.1176C0.163103 28.9666 0.20605 28.7013 0.397349 28.606C1.53266 28.0259 2.54027 27.262 3.53367 26.498C5.06634 25.3238 6.57062 24.1213 8.13167 22.9895C9.39471 22.0699 10.7713 21.3201 12.2614 20.7825C13.8224 20.2307 15.4119 20.1176 17.0155 20.4288C18.5908 20.74 20.166 21.0937 21.7271 21.4616C23.6429 21.9143 25.5587 22.0274 27.5172 21.8718C28.5389 21.7869 29.5749 21.8011 30.6109 21.8152C31.2495 21.8294 31.8739 21.9709 32.4558 22.268C33.3782 22.7348 33.9033 23.8525 33.6762 24.8569C33.5485 25.3945 33.2079 25.7765 32.7538 26.0595C32.0868 26.4697 31.3347 26.6961 30.5683 26.7951C29.2911 26.9649 27.9997 27.0781 26.7082 27.1912Z" fill="#6484FF"/>
<path d="M25.1053 7.01711C25.3465 6.9734 25.5595 7.18594 25.5595 7.43102C25.5595 8.57042 25.5595 9.70598 25.5595 10.8399C25.5595 12.099 24.3332 13.1174 23.3321 12.3539C23.2888 12.3209 23.246 12.2868 23.2037 12.2516C22.5225 11.6999 22.2812 10.9642 22.2812 10.1154C22.2954 9.26655 22.6076 8.53088 23.1611 7.9084C23.672 7.31421 24.3674 7.102 25.1053 7.01711Z" fill="#6484FF"/>
<path d="M26.8633 18.6827C26.8633 17.3571 28.2302 16.2567 29.3042 17.0335C30.2408 17.7267 30.5389 18.6888 30.4679 19.8064C30.4537 20.0611 30.3828 20.3299 30.326 20.5704C30.3118 20.627 30.2267 20.6977 30.1699 20.6977C29.1055 20.7401 28.0554 20.7826 26.991 20.825C26.9205 20.825 26.8633 20.7678 26.8633 20.6973C26.8633 20.0283 26.8633 19.3567 26.8633 18.6827Z" fill="#6484FF"/>
</svg>
