<svg width="40" height="37" viewBox="0 0 40 37" fill="none" xmlns="http://www.w3.org/2000/svg">
<path fill-rule="evenodd" clip-rule="evenodd" d="M35.309 0C35.3091 0 35.3092 0.000102533 35.3092 0.000228941V6.77659C35.3092 7.14507 35.0105 7.44379 34.642 7.44379H3.92976C1.84475 7.44379 0.385237 6.26154 0.0724852 4.3787C-0.323667 2.07988 1.26094 0.131356 3.63785 0.0218881C3.90195 0.00729248 4.16606 0.0121577 4.43016 0.0170229C4.56221 0.0194555 4.69426 0.0218881 4.82631 0.0218881H34.4752C34.7253 0 34.9963 0 35.309 0ZM39.2909 29.5562C39.6824 29.5562 39.9998 29.8735 39.9998 30.265V36.3327C39.9998 36.7012 39.7011 36.9999 39.3326 36.9999H6.20175C3.22018 36.9999 0.968365 35.2703 0.19691 32.3585C0.0718095 31.855 0.00926672 31.3295 0.00926672 30.8041C-0.00463336 25.9729 0 21.1417 0.00463336 16.3106C0.00695004 13.895 0.00926672 11.4794 0.00926672 9.06383C0.00926672 9.01709 0.0130683 8.97034 0.0174245 8.91677C0.0176921 8.91348 0.0179619 8.91016 0.018233 8.90682C0.0273329 8.79456 0.153895 8.72653 0.248574 8.78754C0.4659 8.92758 0.659041 9.05203 0.864117 9.15141C1.78152 9.65496 2.76147 9.85201 3.80398 9.85201C11.6591 9.83741 19.5142 9.84228 27.3631 9.84714H27.3631C31.2852 9.84958 35.2058 9.85201 39.1241 9.85201C39.5962 9.85201 39.979 10.2347 39.979 10.7069V16.6286C39.979 16.9971 39.6802 17.2958 39.3118 17.2958C38.5737 17.2958 37.8356 17.3017 37.0976 17.3076C35.3753 17.3214 33.6531 17.3352 31.9308 17.2739C28.6573 17.1863 25.6132 20.1638 25.9885 24.1266C26.2596 26.9946 28.7199 29.4905 31.4721 29.5342C33.4269 29.5671 35.3818 29.563 37.3366 29.5589C37.988 29.5575 38.6395 29.5562 39.2909 29.5562ZM37.3522 27.1481H38.0001C39.1047 27.1481 40.0001 26.2526 40.0001 25.1481V19.9153C40.0001 19.8555 39.9587 19.8037 39.9087 19.7708C39.8892 19.758 39.8741 19.7481 39.8542 19.7481C39.2637 19.7432 38.6722 19.7362 38.0799 19.7292C35.9952 19.7046 33.9006 19.6799 31.8061 19.7481C29.5542 19.8137 28.3032 21.5871 28.3032 23.4918C28.3032 25.5936 29.9087 27.1043 32.0354 27.1481C33.2169 27.1627 34.3984 27.1578 35.5799 27.1529C36.1707 27.1505 36.7614 27.1481 37.3522 27.1481ZM30.701 23.3688C30.701 22.7354 31.2144 22.222 31.8477 22.222C32.4811 22.222 32.9945 22.7354 32.9945 23.3688V23.4836C32.9945 24.1169 32.4811 24.6303 31.8477 24.6303C31.2144 24.6303 30.701 24.1169 30.701 23.4836V23.3688Z" fill="#6484FF"/>
</svg>
