<svg width="10" height="10" viewBox="0 0 10 10" fill="none" xmlns="http://www.w3.org/2000/svg">
<path d="M8.89706 6.63384C8.53767 6.43969 8.31363 6.06383 8.31363 5.65502V5.00514V3.47216C8.31363 1.92421 7.24993 0.472389 5.81655 0.107464C5.81655 0.107464 5.50001 0 5 0C4.50195 0 4.18637 0.107464 4.18637 0.107464C2.75445 0.473848 1.66667 1.92567 1.66667 3.47362V5.00514V5.65943C1.66667 6.06665 1.44433 6.44135 1.08707 6.63615L0 7.22894V8.3419H10V7.22965L8.89706 6.63384ZM3.88889 9.02074C3.88889 9.56142 4.38575 10 5 10C5.61425 10 6.11111 9.56217 6.11111 9.02074V8.89803H3.88889V9.02074Z" fill="black" fill-opacity="0.87"/>
</svg>
