<svg width="10" height="9" viewBox="0 0 10 9" fill="none" xmlns="http://www.w3.org/2000/svg">
<path d="M7.1884 5.59827C6.88937 5.59847 6.59761 5.70578 6.35257 5.90568C6.10754 6.10559 5.92106 6.38844 5.81836 6.71598H0V7.88229H5.81836C5.92091 8.20994 6.10734 8.49291 6.3524 8.69284C6.59746 8.89277 6.88929 9 7.18835 9C7.48742 9 7.77925 8.89277 8.02431 8.69284C8.26937 8.49291 8.4558 8.20994 8.55835 7.88229H10V6.71598H8.55835C8.45567 6.38845 8.2692 6.10559 8.02419 5.90569C7.77917 5.70579 7.48742 5.59847 7.1884 5.59827ZM7.1884 7.83369C7.09775 7.83369 7.00914 7.80234 6.93376 7.74361C6.85839 7.68487 6.79964 7.60138 6.76495 7.50371C6.73026 7.40603 6.72119 7.29855 6.73887 7.19485C6.75655 7.09116 6.80021 6.99591 6.8643 6.92115C6.9284 6.84639 7.01007 6.79548 7.09898 6.77485C7.18789 6.75423 7.28004 6.76481 7.36379 6.80527C7.44754 6.84573 7.51912 6.91425 7.56949 7.00215C7.61985 7.09006 7.64673 7.19341 7.64673 7.29914C7.64676 7.36935 7.63493 7.43888 7.61191 7.50375C7.58889 7.56862 7.55513 7.62757 7.51257 7.67721C7.47 7.72686 7.41946 7.76623 7.36384 7.79308C7.30821 7.81993 7.2486 7.83373 7.1884 7.83369ZM4.18172 1.11771C4.07917 0.790056 3.89274 0.507092 3.64768 0.307161C3.40262 0.107231 3.11079 0 2.81173 0C2.51266 0 2.22083 0.107231 1.97577 0.307161C1.73071 0.507092 1.54428 0.790056 1.44173 1.11771H0V2.28402H1.44173C1.54428 2.61167 1.73071 2.89464 1.97577 3.09457C2.22083 3.2945 2.51266 3.40173 2.81173 3.40173C3.11079 3.40173 3.40262 3.2945 3.64768 3.09457C3.89274 2.89464 4.07917 2.61167 4.18172 2.28402H10V1.11771H4.18172ZM2.81169 2.23542C2.72104 2.23542 2.63242 2.20407 2.55705 2.14533C2.48168 2.08659 2.42293 2.00311 2.38824 1.90543C2.35355 1.80775 2.34448 1.70027 2.36216 1.59658C2.37985 1.49288 2.4235 1.39763 2.4876 1.32287C2.5517 1.24812 2.63336 1.1972 2.72227 1.17658C2.81118 1.15595 2.90333 1.16654 2.98708 1.207C3.07083 1.24746 3.14241 1.31597 3.19278 1.40388C3.24314 1.49179 3.27002 1.59514 3.27002 1.70086C3.27005 1.77107 3.25822 1.8406 3.2352 1.90548C3.21218 1.97035 3.17842 2.0293 3.13585 2.07894C3.09329 2.12859 3.04275 2.16796 2.98712 2.19481C2.9315 2.22166 2.87189 2.23546 2.81169 2.23542Z" fill="black" fill-opacity="0.87"/>
</svg>
