<svg width="17" height="17" viewBox="0 0 17 17" fill="none" xmlns="http://www.w3.org/2000/svg">
<path d="M14.5111 2.48878C12.9062 0.883117 10.7695 0 8.5 0C6.23045 0 4.09715 0.883117 2.49218 2.48878C0.883894 4.09445 0 6.22865 0 8.5C0 10.7713 0.883894 12.9055 2.49218 14.5112C4.09715 16.1135 6.23045 17 8.5 17C10.7695 17 12.9029 16.1169 14.5078 14.5112C16.1161 12.9055 17 10.7713 17 8.5C17 6.22865 16.1161 4.09445 14.5111 2.48878ZM15.1325 5.77037H11.9791C11.9758 5.76033 11.9758 5.75029 11.9724 5.74026C11.6667 4.07773 11.2181 2.67946 10.8692 1.73947C12.7998 2.41519 14.355 3.89374 15.1325 5.77037ZM7.53968 1.40496C7.85536 1.36147 8.17436 1.3414 8.5 1.3414C8.76916 1.3414 9.03167 1.35813 9.29085 1.38489C9.57662 2.05057 10.2179 3.68969 10.6233 5.77037H6.50958C6.85516 3.45553 7.43002 1.72609 7.53968 1.40496ZM1.32916 8.5C1.32916 8.02499 1.37568 7.56002 1.4654 7.10842H5.01095C4.888 8.44982 4.87803 9.74105 4.98104 10.9553H1.76446C1.48202 10.1893 1.32916 9.36305 1.32916 8.5ZM2.4224 12.2934H5.14719C5.31333 13.3137 5.56255 14.2771 5.90149 15.1702C4.45602 14.6082 3.23651 13.588 2.4224 12.2934ZM5.16712 5.77037H1.8708C2.63507 3.92719 4.14699 2.47206 6.02443 1.77961C5.77522 2.63597 5.4097 4.05096 5.16712 5.77037ZM9.457 15.595C9.14464 15.6352 8.82565 15.6586 8.50332 15.6586C8.17103 15.6586 7.84539 15.6352 7.52307 15.5917C7.01798 14.5346 6.69234 13.414 6.49961 12.2934H10.6898C10.4539 13.4073 10.0618 14.5279 9.457 15.595ZM10.8958 10.9553H6.32017C6.19722 9.58717 6.2371 8.26584 6.34676 7.10842H10.8393C10.9855 8.26918 11.042 9.59051 10.8958 10.9553ZM11.1683 15.1468C11.5604 14.2536 11.8561 13.3003 12.0455 12.2934H14.5809C13.7801 13.5712 12.5839 14.5781 11.1683 15.1468ZM12.2383 10.9553L12.2482 10.8349C12.3546 9.65073 12.3313 8.39964 12.1785 7.10842H15.5379C15.6276 7.56002 15.6742 8.02499 15.6742 8.5C15.6742 9.36305 15.5213 10.1893 15.2389 10.9553H12.2383Z" fill="black" fill-opacity="0.87"/>
</svg>
