<svg width="27" height="27" viewBox="0 0 27 27" fill="none" xmlns="http://www.w3.org/2000/svg">
<path fill-rule="evenodd" clip-rule="evenodd" d="M13.5 0.25C13.9142 0.25 14.25 0.585786 14.25 1V4.125C14.25 4.53921 13.9142 4.875 13.5 4.875C13.0858 4.875 12.75 4.53921 12.75 4.125V1C12.75 0.585786 13.0858 0.25 13.5 0.25ZM13.5 19.2917C16.6986 19.2917 19.2917 16.6986 19.2917 13.5C19.2917 10.3014 16.6986 7.70833 13.5 7.70833C10.3014 7.70833 7.70833 10.3014 7.70833 13.5C7.70833 16.6986 10.3014 19.2917 13.5 19.2917ZM13.5 20.7917C17.5271 20.7917 20.7917 17.5271 20.7917 13.5C20.7917 9.47292 17.5271 6.20833 13.5 6.20833C9.47292 6.20833 6.20833 9.47292 6.20833 13.5C6.20833 17.5271 9.47292 20.7917 13.5 20.7917ZM26 14.25C26.4142 14.25 26.75 13.9142 26.75 13.5C26.75 13.0858 26.4142 12.75 26 12.75H22.875C22.4608 12.75 22.125 13.0858 22.125 13.5C22.125 13.9142 22.4608 14.25 22.875 14.25H26ZM4.875 13.5C4.875 13.9142 4.53921 14.25 4.125 14.25H1C0.585786 14.25 0.25 13.9142 0.25 13.5C0.25 13.0858 0.585786 12.75 1 12.75H4.125C4.53921 12.75 4.875 13.0858 4.875 13.5ZM14.25 22.875C14.25 22.4608 13.9142 22.125 13.5 22.125C13.0858 22.125 12.75 22.4608 12.75 22.875V26C12.75 26.4142 13.0858 26.75 13.5 26.75C13.9142 26.75 14.25 26.4142 14.25 26V22.875ZM7.10508 7.64339C7.39797 7.3505 7.37716 6.89845 7.05859 6.63371L4.65516 4.63642C4.33659 4.37168 3.8409 4.39451 3.54801 4.6874C3.25512 4.98029 3.27593 5.43234 3.5945 5.69708L5.99793 7.69437C6.3165 7.95911 6.81219 7.93629 7.10508 7.64339ZM20.2707 6.58232C19.9475 6.84146 19.9188 7.29308 20.2066 7.59104C20.4943 7.889 20.9895 7.92047 21.3127 7.66133L23.7506 5.70629C24.0737 5.44715 24.1024 4.99554 23.8147 4.69758C23.5269 4.39962 23.0317 4.36814 22.7086 4.62728L20.2707 6.58232ZM7.10508 20.3123C7.39797 20.6052 7.37716 21.0573 7.05859 21.322L4.65516 23.3193C4.33659 23.584 3.8409 23.5612 3.54801 23.2683C3.25512 22.9754 3.27593 22.5234 3.5945 22.2586L5.99793 20.2613C6.3165 19.9966 6.81219 20.0194 7.10508 20.3123ZM20.2707 21.3312C19.9475 21.072 19.9188 20.6204 20.2066 20.3225C20.4943 20.0245 20.9895 19.993 21.3127 20.2522L23.7506 22.2072C24.0737 22.4663 24.1024 22.918 23.8147 23.2159C23.5269 23.5139 23.0317 23.5453 22.7086 23.2862L20.2707 21.3312Z" fill="url(#paint0_linear_1273_7157)"/>
<defs>
<linearGradient id="paint0_linear_1273_7157" x1="13.5" y1="0.25" x2="13.5" y2="26.75" gradientUnits="userSpaceOnUse">
<stop stop-color="#21D4FD"/>
<stop offset="1" stop-color="#B721FF"/>
</linearGradient>
</defs>
</svg>
