<svg width="179" height="50" viewBox="0 0 179 50" fill="none" xmlns="http://www.w3.org/2000/svg">
<path d="M50.7499 28.594C50.7499 28.9429 50.4847 29.2368 50.1532 29.2368H39.1646C39.4464 32.2486 41.485 35.0033 44.3689 35.0033C46.3412 35.0033 47.7997 34.1769 48.8936 32.4323C49.0096 32.2486 49.1754 32.1201 49.3742 32.1201C49.6891 32.1201 49.9212 32.3772 49.9212 32.7261C49.9212 32.8547 49.888 32.9465 49.8383 33.0383C48.7279 35.1686 46.5235 36.2154 44.3689 36.2154C40.6729 36.2154 38.021 32.5425 38.021 28.6307C38.021 24.7007 40.6563 21.0461 44.3689 21.0461C48.0649 21.0461 50.7333 24.6823 50.7499 28.594ZM49.5731 28.0247C49.3411 25.0129 47.2528 22.2581 44.3689 22.2581C41.485 22.2581 39.4464 25.0129 39.1646 28.0247H49.5731ZM64.092 21.3399C64.4069 21.3399 64.639 21.6521 64.639 21.9459C64.639 22.2949 64.4069 22.552 64.092 22.552H61.1418V35.389C61.1418 35.7012 60.9098 35.995 60.5949 35.995C60.28 35.995 60.0479 35.6828 60.0479 35.389V22.552H57.2138C56.8989 22.552 56.6668 22.2949 56.6668 21.9459C56.6668 21.6337 56.8989 21.3399 57.2138 21.3399H60.0479V16.6569C60.0479 16.3447 60.2634 16.0508 60.5452 16.0141C60.8932 15.9774 61.1584 16.2528 61.1584 16.6201V21.3399H64.092ZM82.0915 27.5472V35.3155C82.0915 35.6645 81.8097 35.9216 81.5445 35.9216C81.2296 35.9216 80.9976 35.6645 80.9976 35.3155V27.5472C80.9976 24.921 79.6551 22.3132 77.0198 22.3132C73.6387 22.3132 72.1802 25.5822 72.3791 28.9429C72.3791 29.0348 72.4122 29.4204 72.4122 29.4755V35.2972C72.4122 35.6094 72.1967 35.9032 71.915 35.9399C71.5669 35.9767 71.3017 35.7012 71.3017 35.3339V9.78841C71.3017 9.47621 71.5338 9.18237 71.8487 9.18237C72.1636 9.18237 72.3956 9.49458 72.3956 9.78841V24.2232C73.3404 22.35 75.0309 21.0828 77.0032 21.0828C80.2517 21.0828 82.0915 24.2232 82.0915 27.5472ZM101.831 28.594C101.831 28.9429 101.566 29.2368 101.235 29.2368H90.2459C90.5277 32.2486 92.5663 35.0033 95.4502 35.0033C97.4225 35.0033 98.881 34.1769 99.9749 32.4323C100.091 32.2486 100.257 32.1201 100.456 32.1201C100.77 32.1201 101.002 32.3772 101.002 32.7261C101.002 32.8547 100.969 32.9465 100.92 33.0383C99.8092 35.1686 97.6048 36.2154 95.4502 36.2154C91.7542 36.2154 89.1023 32.5425 89.1023 28.6307C89.1023 24.7007 91.7376 21.0461 95.4502 21.0461C99.1296 21.0461 101.798 24.6823 101.831 28.594ZM100.638 28.0247C100.406 25.0129 98.3175 22.2581 95.4336 22.2581C92.5663 22.2581 90.5111 25.0129 90.2293 28.0247H100.638ZM115.322 21.9092C115.322 22.2949 115.124 22.5152 114.809 22.5703C111.577 23.1029 110.118 26.0229 110.118 29.4204V35.2421C110.118 35.5543 109.903 35.8481 109.621 35.8849C109.273 35.9216 109.008 35.6461 109.008 35.2788V22.001C109.008 21.6888 109.223 21.395 109.505 21.3583C109.853 21.3215 110.118 21.597 110.118 21.9643V24.6639C111.03 22.956 112.836 21.3399 114.726 21.3399C115.008 21.3399 115.322 21.5603 115.322 21.9092ZM133.405 28.594C133.405 28.9429 133.14 29.2368 132.808 29.2368H121.82C122.101 32.2486 124.14 35.0033 127.024 35.0033C128.996 35.0033 130.455 34.1769 131.549 32.4323C131.665 32.2486 131.83 32.1201 132.029 32.1201C132.344 32.1201 132.576 32.3772 132.576 32.7261C132.576 32.8547 132.543 32.9465 132.493 33.0383C131.383 35.1686 129.178 36.2154 127.024 36.2154C123.328 36.2154 120.676 32.5425 120.676 28.6307C120.676 24.7007 123.311 21.0461 127.024 21.0461C130.72 21.0461 133.388 24.6823 133.405 28.594ZM132.228 28.0247C131.996 25.0129 129.908 22.2581 127.024 22.2581C124.14 22.2581 122.101 25.0129 121.82 28.0247H132.228ZM151.172 22.0561V35.389C151.172 35.7379 150.89 35.995 150.625 35.995C150.31 35.995 150.078 35.7379 150.078 35.389V32.8547C149.167 34.8564 147.559 36.3072 145.504 36.3072C142.239 36.3072 140.432 33.1669 140.432 29.8428V22.0378C140.432 21.7256 140.664 21.4317 140.979 21.4317C141.294 21.4317 141.526 21.7439 141.526 22.0378V29.8428C141.526 32.469 142.869 35.0768 145.504 35.0768C149.2 35.0768 150.078 31.2385 150.078 26.9963V22.0194C150.078 21.6521 150.426 21.2848 150.824 21.4501C151.023 21.5603 151.172 21.799 151.172 22.0561ZM179 27.4921V35.2972C179 35.6461 178.718 35.9032 178.453 35.9032C178.138 35.9032 177.906 35.6461 177.906 35.2972V27.4921C177.906 24.8659 176.564 22.2949 173.928 22.2949C170.614 22.2949 169.354 26.2249 169.354 29.2735V35.2972C169.354 35.6461 169.072 35.9032 168.807 35.9032C168.492 35.9032 168.26 35.6461 168.26 35.2972V27.4921C168.26 24.8659 166.918 22.2949 164.282 22.2949C160.934 22.2949 159.559 25.2149 159.675 29.1082C159.675 29.2001 159.708 29.3653 159.675 29.4204V35.2788C159.675 35.591 159.459 35.8849 159.177 35.9216C158.829 35.9583 158.564 35.6828 158.564 35.3155V22.001C158.564 21.6888 158.78 21.395 159.061 21.3583C159.41 21.3215 159.675 21.597 159.675 21.9643V24.1864C160.619 22.3132 162.31 21.0828 164.282 21.0828C166.52 21.0828 168.26 22.6622 168.973 24.9578C169.884 22.6805 171.658 21.0828 173.928 21.0828C177.16 21.0828 179 24.1864 179 27.4921Z" fill="black"/>
<path opacity="0.45" d="M13.7565 18.3832V0L0 25.3068L13.7565 34.3239V18.3832Z" fill="black"/>
<path opacity="0.8" d="M13.7571 34.3239L27.5301 25.3068L13.7571 0V18.3832V34.3239Z" fill="black"/>
<path opacity="0.45" d="M13.7565 37.2071L0 28.2084L13.7565 49.6952V37.2071Z" fill="black"/>
<path opacity="0.8" d="M27.5301 28.2084L13.7571 37.2071V49.6952L27.5301 28.2084Z" fill="black"/>
<path opacity="0.6" d="M13.7565 34.4194L27.5295 25.4023L13.7565 18.4788L0 25.4023L13.7565 34.4194Z" fill="black"/>
</svg>
