<svg width="590" height="580" viewBox="0 0 590 580" fill="none" xmlns="http://www.w3.org/2000/svg">
<mask id="path-1-inside-1_230_2075" fill="white">
<path fill-rule="evenodd" clip-rule="evenodd" d="M188.24 560.574C229.162 575.907 309.938 594.092 400.321 560.216L438.752 497.815C485.011 470.358 570.413 397.258 561.873 259.261L588.205 193.293C573.26 132.317 534.117 79.5428 498.533 49.2332H439.108C391.425 12.8617 270.439 -38.1297 149.453 49.2332H89.6719C64.0514 70.2716 16.511 124.472 0 192.936L25.9764 258.548C22.418 322.376 35.5841 426.498 149.453 497.815L188.24 560.574ZM295.105 415.735C364.559 415.735 420.862 359.311 420.862 289.709C420.862 220.107 364.559 163.683 295.105 163.683C225.651 163.683 169.347 220.107 169.347 289.709C169.347 359.311 225.651 415.735 295.105 415.735Z"/>
</mask>
<path fill-rule="evenodd" clip-rule="evenodd" d="M188.24 560.574C229.162 575.907 309.938 594.092 400.321 560.216L438.752 497.815C485.011 470.358 570.413 397.258 561.873 259.261L588.205 193.293C573.26 132.317 534.117 79.5428 498.533 49.2332H439.108C391.425 12.8617 270.439 -38.1297 149.453 49.2332H89.6719C64.0514 70.2716 16.511 124.472 0 192.936L25.9764 258.548C22.418 322.376 35.5841 426.498 149.453 497.815L188.24 560.574ZM295.105 415.735C364.559 415.735 420.862 359.311 420.862 289.709C420.862 220.107 364.559 163.683 295.105 163.683C225.651 163.683 169.347 220.107 169.347 289.709C169.347 359.311 225.651 415.735 295.105 415.735Z" fill="url(#paint0_linear_230_2075)" fill-opacity="0.3"/>
<path d="M400.321 560.216L400.848 561.621L401.329 561.441L401.598 561.003L400.321 560.216ZM188.24 560.573L186.964 561.362L187.233 561.798L187.714 561.978L188.24 560.573ZM438.752 497.815L437.986 496.525L437.669 496.714L437.475 497.028L438.752 497.815ZM561.873 259.261L560.48 258.705L560.355 259.017L560.376 259.353L561.873 259.261ZM588.205 193.293L589.598 193.849L589.777 193.402L589.662 192.936L588.205 193.293ZM498.533 49.2331L499.506 48.0912L499.086 47.7331H498.533V49.2331ZM439.108 49.2331L438.198 50.4258L438.601 50.7331H439.108V49.2331ZM149.453 49.2331V50.7331H149.938L150.331 50.4492L149.453 49.2331ZM89.6719 49.2331V47.7331H89.135L88.72 48.0739L89.6719 49.2331ZM0 192.936L-1.45819 192.584L-1.56961 193.046L-1.39467 193.488L0 192.936ZM25.9764 258.547L27.4741 258.631L27.4924 258.302L27.3711 257.995L25.9764 258.547ZM149.453 497.815L150.729 497.026L150.546 496.729L150.249 496.543L149.453 497.815ZM399.795 558.812C309.862 592.519 229.48 574.424 188.766 559.169L187.714 561.978C228.843 577.389 310.013 595.666 400.848 561.621L399.795 558.812ZM437.475 497.028L399.044 559.43L401.598 561.003L440.029 498.601L437.475 497.028ZM560.376 259.353C568.868 396.569 483.987 469.222 437.986 496.525L439.518 499.105C486.036 471.494 571.959 397.947 563.37 259.168L560.376 259.353ZM586.812 192.737L560.48 258.705L563.266 259.817L589.598 193.849L586.812 192.737ZM497.561 50.3751C532.949 80.5182 571.891 133.032 586.748 193.65L589.662 192.936C574.629 131.602 535.285 78.5672 499.506 48.0912L497.561 50.3751ZM439.108 50.7331H498.533V47.7331H439.108V50.7331ZM150.331 50.4492C270.575 -36.3779 390.807 14.2764 438.198 50.4258L440.018 48.0405C392.044 11.4469 270.303 -39.8816 148.575 48.017L150.331 50.4492ZM89.6719 50.7331H149.453V47.7331H89.6719V50.7331ZM1.45819 193.288C17.8715 125.229 65.1748 71.29 90.6239 50.3924L88.72 48.0739C62.928 69.2531 15.1506 123.715 -1.45819 192.584L1.45819 193.288ZM27.3711 257.995L1.39467 192.384L-1.39467 193.488L24.5817 259.1L27.3711 257.995ZM150.249 496.543C37.0218 425.629 23.9322 322.162 27.4741 258.631L24.4787 258.464C20.9038 322.589 34.1464 427.368 148.657 499.086L150.249 496.543ZM189.516 559.785L150.729 497.026L148.177 498.603L186.964 561.362L189.516 559.785ZM419.362 289.709C419.362 358.486 363.727 414.235 295.105 414.235V417.235C365.39 417.235 422.362 360.137 422.362 289.709H419.362ZM295.105 165.183C363.727 165.183 419.362 220.932 419.362 289.709H422.362C422.362 219.282 365.39 162.183 295.105 162.183V165.183ZM170.847 289.709C170.847 220.932 226.482 165.183 295.105 165.183V162.183C224.819 162.183 167.847 219.282 167.847 289.709H170.847ZM295.105 414.235C226.482 414.235 170.847 358.486 170.847 289.709H167.847C167.847 360.137 224.819 417.235 295.105 417.235V414.235Z" fill="url(#paint1_linear_230_2075)" mask="url(#path-1-inside-1_230_2075)"/>
<path d="M400.177 559.76C309.826 593.608 229.079 575.438 188.172 560.117L149.399 497.411L194.328 552.357C227.551 565.066 314.331 582.859 395.668 552.357L438.594 497.411L400.177 559.76Z" fill="url(#paint2_linear_230_2075)"/>
<path d="M587.993 193.145L561.671 259.057L579.479 191.152C560.246 122.512 514.866 73.4166 496.839 57.707L438.95 49.2061H498.354C533.925 79.4902 573.053 132.22 587.993 193.145Z" fill="url(#paint3_linear_230_2075)"/>
<path d="M89.6396 49.2061H149.399L89.6396 59.212C36.3402 108.175 14.6836 168.664 10.5178 192.788L25.967 258.345L0 192.788C16.5051 124.382 64.0283 70.2268 89.6396 49.2061Z" fill="url(#paint4_linear_230_2075)"/>
<defs>
<linearGradient id="paint0_linear_230_2075" x1="294.604" y1="579.418" x2="294.604" y2="1.00438" gradientUnits="userSpaceOnUse">
<stop stop-color="#21D4FD"/>
<stop offset="1" stop-color="#B721FF"/>
</linearGradient>
<linearGradient id="paint1_linear_230_2075" x1="294.103" y1="1.00439" x2="294.103" y2="579.418" gradientUnits="userSpaceOnUse">
<stop stop-color="#B721FF"/>
<stop offset="1" stop-color="#21D4FD"/>
</linearGradient>
<linearGradient id="paint2_linear_230_2075" x1="294.497" y1="578.946" x2="294.497" y2="49.206" gradientUnits="userSpaceOnUse">
<stop stop-color="#21D4FD"/>
<stop offset="1" stop-color="#B721FF"/>
</linearGradient>
<linearGradient id="paint3_linear_230_2075" x1="294.497" y1="578.946" x2="294.497" y2="49.206" gradientUnits="userSpaceOnUse">
<stop stop-color="#21D4FD"/>
<stop offset="1" stop-color="#B721FF"/>
</linearGradient>
<linearGradient id="paint4_linear_230_2075" x1="294.497" y1="578.946" x2="294.497" y2="49.206" gradientUnits="userSpaceOnUse">
<stop stop-color="#21D4FD"/>
<stop offset="1" stop-color="#B721FF"/>
</linearGradient>
</defs>
</svg>
