<svg width="817" height="589" viewBox="0 0 817 589" fill="none" xmlns="http://www.w3.org/2000/svg">
<path d="M777.613 180.764C811.303 270.809 795.618 361.961 780.369 402.73L495.079 439.107L768.87 394.596C781.52 361.486 797.23 272.157 766.87 191.096L496.909 151L777.613 180.764Z" fill="url(#paint0_linear_230_3029)"/>
<path d="M192.23 2.00005L257.836 28.2335L190.247 10.4856C121.927 29.6529 73.0601 74.8796 57.4237 92.845L48.9624 150.538L48.9624 91.3358C79.1053 55.8851 131.59 16.8893 192.23 2.00005Z" fill="url(#paint1_linear_230_3029)"/>
<path d="M48.9624 498.664L48.9624 439.107L58.9216 498.664C107.657 551.783 167.864 573.366 191.876 577.518L257.126 562.121L191.876 588C123.788 571.551 69.8852 524.189 48.9624 498.664Z" fill="url(#paint2_linear_230_3029)"/>
<mask id="path-2-inside-1_230_3029" fill="white">
<path fill-rule="evenodd" clip-rule="evenodd" d="M777.869 394.701C793.118 353.932 811.059 272.246 777.369 182.201L495.908 149.5C468.602 103.414 395.181 17.9918 257.942 26.5L192.452 0.499992C131.811 15.3893 78.6147 54.5494 48.4718 90.0001L48.4708 149.5C12.2992 197.004 -38.4118 318.468 48.4708 439L48.4708 499C69.3936 524.525 123.863 572.051 191.951 588.5L257.441 562.5C320.919 566.045 424.983 552.942 495.908 439.5L777.869 394.701ZM413.429 294.002C413.429 224.808 357.316 168.716 288.096 168.716C218.876 168.716 162.763 224.808 162.763 294.002C162.763 363.195 218.876 419.288 288.096 419.288C357.316 419.288 413.429 363.195 413.429 294.002Z"/>
</mask>
<path fill-rule="evenodd" clip-rule="evenodd" d="M777.869 394.701C793.118 353.932 811.059 272.246 777.369 182.201L495.908 149.5C468.602 103.414 395.181 17.9918 257.942 26.5L192.452 0.499992C131.811 15.3893 78.6147 54.5494 48.4718 90.0001L48.4708 149.5C12.2992 197.004 -38.4118 318.468 48.4708 439L48.4708 499C69.3936 524.525 123.863 572.051 191.951 588.5L257.441 562.5C320.919 566.045 424.983 552.942 495.908 439.5L777.869 394.701ZM413.429 294.002C413.429 224.808 357.316 168.716 288.096 168.716C218.876 168.716 162.763 224.808 162.763 294.002C162.763 363.195 218.876 419.288 288.096 419.288C357.316 419.288 413.429 363.195 413.429 294.002Z" fill="url(#paint3_linear_230_3029)" fill-opacity="0.3"/>
<path d="M777.369 182.201L778.774 181.675L778.453 180.817L777.542 180.711L777.369 182.201ZM777.868 394.701L778.104 396.182L778.967 396.045L779.273 395.226L777.868 394.701ZM495.908 149.5L494.618 150.265L494.997 150.904L495.735 150.99L495.908 149.5ZM257.942 26.5L257.389 27.8942L257.7 28.0179L258.035 27.9971L257.942 26.5ZM192.451 0.500019L193.005 -0.894133L192.559 -1.07103L192.094 -0.956713L192.451 0.500019ZM48.4717 90.0001L47.329 89.0284L46.9717 89.4486L46.9717 90.0001L48.4717 90.0001ZM48.4707 149.5L49.6641 150.409L49.9707 150.006L49.9707 149.5L48.4707 149.5ZM48.4707 439L49.9707 439L49.9707 438.516L49.6876 438.123L48.4707 439ZM48.4708 499L46.9708 499L46.9708 499.536L47.3107 499.951L48.4708 499ZM191.951 588.5L191.598 589.958L192.061 590.07L192.504 589.894L191.951 588.5ZM257.441 562.5L257.525 561.002L257.195 560.984L256.888 561.106L257.441 562.5ZM495.908 439.5L495.673 438.019L494.998 438.126L494.636 438.705L495.908 439.5ZM775.964 182.726C809.486 272.323 791.634 353.618 776.464 394.175L779.273 395.226C794.601 354.247 812.631 272.168 778.774 181.675L775.964 182.726ZM495.735 150.99L777.196 183.691L777.542 180.711L496.081 148.01L495.735 150.99ZM258.035 27.9971C394.492 19.5374 467.466 104.439 494.618 150.265L497.199 148.735C469.739 102.39 395.871 16.4462 257.849 25.0029L258.035 27.9971ZM191.898 1.89417L257.389 27.8942L258.496 25.1059L193.005 -0.894133L191.898 1.89417ZM49.6145 90.9717C79.5881 55.7202 132.523 16.759 192.809 1.95675L192.094 -0.956713C131.099 14.0196 77.6412 53.3786 47.329 89.0284L49.6145 90.9717ZM49.9707 149.5L49.9717 90.0001L46.9717 90.0001L46.9707 149.5L49.9707 149.5ZM49.6876 438.123C-36.6615 318.331 13.7153 197.62 49.6641 150.409L47.2773 148.591C10.8831 196.388 -40.1623 318.605 47.2539 439.877L49.6876 438.123ZM49.9708 499L49.9707 439L46.9707 439L46.9708 499L49.9708 499ZM192.303 587.042C124.618 570.69 70.4107 523.399 49.6308 498.049L47.3107 499.951C68.3763 525.65 123.108 573.412 191.598 589.958L192.303 587.042ZM256.888 561.106L191.397 587.106L192.504 589.894L257.995 563.894L256.888 561.106ZM494.636 438.705C424.114 551.503 320.707 564.531 257.525 561.002L257.358 563.998C321.13 567.559 425.853 554.381 497.18 440.295L494.636 438.705ZM777.633 393.219L495.673 438.019L496.143 440.981L778.104 396.182L777.633 393.219ZM288.096 170.216C356.488 170.216 411.929 225.637 411.929 294.002L414.929 294.002C414.929 223.979 358.143 167.216 288.096 167.216L288.096 170.216ZM164.263 294.002C164.263 225.637 219.704 170.216 288.096 170.216L288.096 167.216C218.048 167.216 161.263 223.979 161.263 294.002L164.263 294.002ZM288.096 417.788C219.704 417.788 164.263 362.367 164.263 294.002L161.263 294.002C161.263 364.024 218.048 420.788 288.096 420.788L288.096 417.788ZM411.929 294.002C411.929 362.367 356.488 417.788 288.096 417.788L288.096 420.788C358.143 420.788 414.929 364.024 414.929 294.002L411.929 294.002Z" fill="url(#paint4_linear_230_3029)" mask="url(#path-2-inside-1_230_3029)"/>
<defs>
<linearGradient id="paint0_linear_230_3029" x1="797.65" y1="294.501" x2="48.9624" y2="294.501" gradientUnits="userSpaceOnUse">
<stop stop-color="#21D4FD"/>
<stop offset="1" stop-color="#B721FF"/>
</linearGradient>
<linearGradient id="paint1_linear_230_3029" x1="797.65" y1="294.501" x2="48.9624" y2="294.501" gradientUnits="userSpaceOnUse">
<stop stop-color="#21D4FD"/>
<stop offset="1" stop-color="#B721FF"/>
</linearGradient>
<linearGradient id="paint2_linear_230_3029" x1="797.65" y1="294.501" x2="48.9624" y2="294.501" gradientUnits="userSpaceOnUse">
<stop stop-color="#21D4FD"/>
<stop offset="1" stop-color="#B721FF"/>
</linearGradient>
<linearGradient id="paint3_linear_230_3029" x1="796.52" y1="293.999" x2="0.507043" y2="293.999" gradientUnits="userSpaceOnUse">
<stop stop-color="#21D4FD"/>
<stop offset="1" stop-color="#B721FF"/>
</linearGradient>
<linearGradient id="paint4_linear_230_3029" x1="0.507067" y1="294.5" x2="796.52" y2="294.5" gradientUnits="userSpaceOnUse">
<stop stop-color="#B721FF"/>
<stop offset="1" stop-color="#21D4FD"/>
</linearGradient>
</defs>
</svg>
