<svg width="829" height="975" viewBox="0 0 829 975" fill="none" xmlns="http://www.w3.org/2000/svg">
<path fill-rule="evenodd" clip-rule="evenodd" d="M618.127 258.841C683.088 297.315 803.015 399.746 791.022 593.116L828 685.555C807.013 770.997 752.046 844.947 702.076 887.419H618.627C551.667 938.385 381.77 1009.84 211.873 887.419H127.924C91.9455 857.939 25.186 781.99 2 686.054L38.4779 594.116C33.4809 504.676 51.9698 358.774 211.873 258.841L280.92 26.9986C300.414 12.9992 371.221 1.00002 415.881 1C481.362 0.999972 537.346 16.4992 548.343 26.9986C548.343 26.9986 586.549 147.974 618.127 258.841ZM308.669 857.248C349.482 872.507 430.043 890.604 520.187 856.892L558.516 794.793C604.653 767.469 689.828 694.723 681.31 557.393L707.573 491.745C692.667 431.064 653.628 378.545 618.139 348.383H558.871C511.315 312.187 390.65 261.443 269.985 348.383H210.362C184.809 369.319 137.395 423.257 120.928 491.39L146.835 556.684C143.286 620.203 156.418 723.821 269.985 794.793L308.669 857.248Z" fill="url(#paint0_linear_1673_18314)" fill-opacity="0.3"/>
<path d="M791.022 593.116L790.274 593.07L790.263 593.238L790.326 593.395L791.022 593.116ZM618.127 258.841L617.406 259.046L617.488 259.333L617.745 259.486L618.127 258.841ZM828 685.555L828.728 685.733L828.786 685.5L828.696 685.276L828 685.555ZM702.076 887.419V888.169H702.352L702.562 887.99L702.076 887.419ZM618.627 887.419V886.669H618.374L618.172 886.822L618.627 887.419ZM211.873 887.419L212.311 886.811L212.115 886.669H211.873V887.419ZM127.924 887.419L127.448 887.999L127.656 888.169H127.924V887.419ZM2 686.054L1.30287 685.778L1.21505 685.999L1.27099 686.23L2 686.054ZM38.4779 594.116L39.175 594.392L39.236 594.239L39.2267 594.074L38.4779 594.116ZM211.873 258.841L212.27 259.477L212.511 259.326L212.592 259.055L211.873 258.841ZM280.92 26.9986L280.482 26.3894L280.274 26.5389L280.201 26.7845L280.92 26.9986ZM415.881 1L415.881 0.25L415.881 1ZM548.343 26.9986L549.058 26.7727L549 26.5891L548.861 26.4561L548.343 26.9986ZM520.187 856.892L520.45 857.595L520.691 857.505L520.825 857.286L520.187 856.892ZM308.669 857.248L308.031 857.643L308.166 857.86L308.406 857.95L308.669 857.248ZM558.516 794.793L558.134 794.148L557.975 794.242L557.878 794.399L558.516 794.793ZM681.31 557.393L680.614 557.115L680.551 557.271L680.562 557.44L681.31 557.393ZM707.573 491.745L708.269 492.023L708.359 491.8L708.301 491.566L707.573 491.745ZM618.139 348.383L618.624 347.811L618.414 347.633H618.139V348.383ZM558.871 348.383L558.417 348.979L558.618 349.133H558.871V348.383ZM269.985 348.383V349.133H270.227L270.423 348.991L269.985 348.383ZM210.362 348.383V347.633H210.094L209.887 347.802L210.362 348.383ZM120.928 491.39L120.199 491.214L120.143 491.445L120.231 491.667L120.928 491.39ZM146.835 556.684L147.584 556.726L147.594 556.561L147.533 556.407L146.835 556.684ZM269.985 794.793L270.622 794.398L270.53 794.249L270.382 794.157L269.985 794.793ZM791.771 593.163C803.788 399.401 683.599 296.746 618.509 258.195L617.745 259.486C682.576 297.884 802.242 400.091 790.274 593.07L791.771 593.163ZM828.696 685.276L791.719 592.838L790.326 593.395L827.304 685.833L828.696 685.276ZM702.562 887.99C752.629 845.436 807.697 771.356 828.728 685.733L827.272 685.376C806.328 770.639 751.463 844.459 701.591 886.848L702.562 887.99ZM618.627 888.169H702.076V886.669H618.627V888.169ZM211.435 888.028C381.702 1010.71 551.976 939.092 619.081 888.016L618.172 886.822C551.359 937.677 381.838 1008.96 212.311 886.811L211.435 888.028ZM127.924 888.169H211.873V886.669H127.924V888.169ZM1.27099 686.23C24.506 782.369 91.3845 858.449 127.448 887.999L128.399 886.839C92.5066 857.429 25.8659 781.611 2.72901 685.878L1.27099 686.23ZM37.7808 593.839L1.30287 685.778L2.69713 686.331L39.175 594.392L37.7808 593.839ZM211.475 258.205C51.2513 358.338 32.7238 504.568 37.7291 594.158L39.2267 594.074C34.2381 504.783 52.6882 359.209 212.27 259.477L211.475 258.205ZM280.201 26.7845L211.154 258.627L212.592 259.055L281.639 27.2127L280.201 26.7845ZM415.881 0.25C393.496 0.250009 364.583 3.25589 338.827 8.01199C325.948 10.3903 313.844 13.2089 303.731 16.3133C293.639 19.4117 285.46 22.8149 280.482 26.3894L281.357 27.6078C286.127 24.1825 294.11 20.8361 304.172 17.7473C314.214 14.6646 326.258 11.8584 339.1 9.48705C364.786 4.74371 393.606 1.75001 415.881 1.75L415.881 0.25ZM548.861 26.4561C545.993 23.718 540.306 20.7377 532.478 17.8045C524.619 14.8596 514.508 11.9287 502.705 9.32955C479.098 4.13104 448.678 0.249986 415.881 0.25L415.881 1.75C448.566 1.74999 478.878 5.61852 502.383 10.7945C514.135 13.3825 524.175 16.2951 531.952 19.2092C539.76 22.1351 545.195 25.0294 547.825 27.541L548.861 26.4561ZM618.848 258.635C603.057 203.195 585.61 145.23 572.111 101.125C565.361 79.0726 559.598 60.4848 555.522 47.4101C553.485 40.8727 551.869 35.7136 550.762 32.1887C550.209 30.4262 549.783 29.0723 549.495 28.159C549.352 27.7023 549.242 27.3558 549.169 27.1234C549.132 27.0072 549.105 26.9196 549.086 26.861C549.077 26.8317 549.07 26.8096 549.065 26.7949C549.063 26.7875 549.061 26.782 549.06 26.7783C549.06 26.7764 549.059 26.7751 549.059 26.7741C549.059 26.7732 549.058 26.7727 548.343 26.9986C547.628 27.2245 547.628 27.2249 547.628 27.2258C547.629 27.2267 547.629 27.2281 547.63 27.2299C547.631 27.2336 547.633 27.2391 547.635 27.2465C547.64 27.2612 547.647 27.2832 547.656 27.3124C547.674 27.3709 547.702 27.4585 547.738 27.5746C547.812 27.8068 547.921 28.1531 548.065 28.6095C548.352 29.5224 548.778 30.8759 549.331 32.6379C550.437 36.1619 552.053 41.3201 554.09 47.8565C558.165 60.9292 563.927 79.5145 570.676 101.564C584.174 145.664 601.619 203.619 617.406 259.046L618.848 258.635ZM519.924 856.19C430.006 889.818 349.641 871.766 308.931 856.545L308.406 857.95C349.323 873.248 430.081 891.391 520.45 857.595L519.924 856.19ZM557.878 794.399L519.549 856.498L520.825 857.286L559.154 795.187L557.878 794.399ZM680.562 557.44C689.055 694.378 604.141 766.9 558.134 794.148L558.898 795.438C605.164 768.038 690.601 695.068 682.059 557.347L680.562 557.44ZM706.877 491.466L680.614 557.115L682.007 557.672L708.269 492.023L706.877 491.466ZM617.653 348.954C653.045 379.034 691.983 431.423 706.845 491.924L708.301 491.566C693.351 430.706 654.212 378.057 618.624 347.811L617.653 348.954ZM558.871 349.133H618.139V347.633H558.871V349.133ZM270.423 348.991C390.718 262.318 511.006 312.895 558.417 348.979L559.325 347.786C511.623 311.48 390.582 260.567 269.546 347.774L270.423 348.991ZM210.362 349.133H269.985V347.633H210.362V349.133ZM121.657 491.566C138.075 423.637 185.37 369.829 210.837 348.963L209.887 347.802C184.248 368.809 136.715 422.878 120.199 491.214L121.657 491.566ZM147.533 556.407L121.625 491.113L120.231 491.667L146.138 556.96L147.533 556.407ZM270.382 794.157C157.136 723.386 144.044 620.096 147.584 556.726L146.087 556.642C142.529 620.31 155.699 724.257 269.587 795.429L270.382 794.157ZM309.306 856.853L270.622 794.398L269.347 795.188L308.031 857.643L309.306 856.853Z" fill="url(#paint1_linear_1673_18314)"/>
<path d="M548 26.0002C479.5 -14.5009 328 -1.00042 281 26.5L212 258.424L288.5 33.5C334.333 16.6667 430.7 -6.9 541.5 33.5L618.5 258.5L548 26.0002Z" fill="url(#paint2_linear_1673_18314)"/>
<path d="M826.5 685.424L789.5 592.924L809 685.424C803.667 718.45 773.3 802.2 694.5 873L617 887.424H700.5C750.5 844.924 805.5 770.924 826.5 685.424Z" fill="url(#paint3_linear_1673_18314)"/>
<path d="M126 887.424H210L131.5 873C71 825 25.5 731 15.5 685.924L36.5 593.924L0 685.924C23.2 781.924 90 857.924 126 887.424Z" fill="url(#paint4_linear_1673_18314)"/>
<defs>
<linearGradient id="paint0_linear_1673_18314" x1="415" y1="1" x2="415" y2="955" gradientUnits="userSpaceOnUse">
<stop stop-color="#21D4FD"/>
<stop offset="1" stop-color="#B721FF"/>
</linearGradient>
<linearGradient id="paint1_linear_1673_18314" x1="415" y1="1" x2="415" y2="955" gradientUnits="userSpaceOnUse">
<stop stop-color="#21D4FD"/>
<stop offset="1" stop-color="#B721FF"/>
</linearGradient>
<linearGradient id="paint2_linear_1673_18314" x1="413.251" y1="144" x2="413.001" y2="887" gradientUnits="userSpaceOnUse">
<stop stop-color="#21D4FD"/>
<stop offset="1" stop-color="#B721FF"/>
</linearGradient>
<linearGradient id="paint3_linear_1673_18314" x1="413.251" y1="144" x2="413.001" y2="887" gradientUnits="userSpaceOnUse">
<stop stop-color="#21D4FD"/>
<stop offset="1" stop-color="#B721FF"/>
</linearGradient>
<linearGradient id="paint4_linear_1673_18314" x1="413.251" y1="144" x2="413.001" y2="887" gradientUnits="userSpaceOnUse">
<stop stop-color="#21D4FD"/>
<stop offset="1" stop-color="#B721FF"/>
</linearGradient>
</defs>
</svg>
