<svg width="830" height="813" viewBox="0 0 830 813" fill="none" xmlns="http://www.w3.org/2000/svg">
<path fill-rule="evenodd" clip-rule="evenodd" d="M266.5 27.4242C324 5.9237 437.5 -19.5758 564.5 27.9249L618.5 115.424C683.5 153.924 803.5 256.424 791.5 449.924L828.5 542.424C807.5 627.924 752.5 701.924 702.5 744.424H619C552 795.424 382 866.924 212 744.424H128C92 714.924 25.2 638.924 2 542.924L38.5 450.924C33.5 361.424 52 215.424 212 115.424L266.5 27.4242ZM308.854 714.234C349.692 729.503 430.302 747.613 520.501 713.878L558.853 651.737C605.018 624.395 690.244 551.6 681.722 414.178L708 348.486C693.085 287.765 654.023 235.211 618.512 205.027H559.208C511.623 168.808 390.885 118.029 270.147 205.027H210.488C184.92 225.978 137.477 279.953 121 348.131L146.923 413.468C143.372 477.03 156.511 580.718 270.147 651.737L308.854 714.234Z" fill="url(#paint0_linear_153_3160)" fill-opacity="0.3"/>
<path d="M564.5 27.9249L565.138 27.531L565.003 27.3125L564.763 27.2225L564.5 27.9249ZM266.5 27.4242L266.237 26.7217L265.997 26.8115L265.862 27.0293L266.5 27.4242ZM618.5 115.424L617.862 115.818L617.959 115.975L618.118 116.07L618.5 115.424ZM791.5 449.924L790.751 449.878L790.741 450.046L790.804 450.203L791.5 449.924ZM828.5 542.424L829.228 542.603L829.286 542.369L829.196 542.146L828.5 542.424ZM702.5 744.424V745.174H702.776L702.986 744.996L702.5 744.424ZM619 744.424V743.674H618.747L618.546 743.828L619 744.424ZM212 744.424L212.438 743.816L212.242 743.674H212V744.424ZM128 744.424L127.525 745.004L127.732 745.174H128V744.424ZM2 542.924L1.30286 542.648L1.21505 542.869L1.27099 543.1L2 542.924ZM38.5 450.924L39.1971 451.201L39.258 451.047L39.2488 450.882L38.5 450.924ZM212 115.424L212.397 116.06L212.546 115.968L212.638 115.819L212 115.424ZM520.501 713.878L520.764 714.581L521.004 714.491L521.139 714.272L520.501 713.878ZM308.854 714.234L308.217 714.629L308.351 714.847L308.592 714.936L308.854 714.234ZM558.853 651.737L558.471 651.092L558.312 651.186L558.215 651.343L558.853 651.737ZM681.722 414.178L681.025 413.9L680.963 414.056L680.973 414.225L681.722 414.178ZM708 348.486L708.696 348.764L708.786 348.541L708.728 348.307L708 348.486ZM618.512 205.027L618.998 204.456L618.788 204.277H618.512V205.027ZM559.208 205.027L558.754 205.624L558.955 205.777H559.208V205.027ZM270.147 205.027V205.777H270.389L270.585 205.636L270.147 205.027ZM210.488 205.027V204.277H210.22L210.013 204.447L210.488 205.027ZM121 348.131L120.271 347.955L120.215 348.186L120.303 348.407L121 348.131ZM146.923 413.468L147.672 413.51L147.681 413.345L147.62 413.192L146.923 413.468ZM270.147 651.737L270.785 651.342L270.693 651.194L270.544 651.101L270.147 651.737ZM564.763 27.2225C437.538 -20.3625 323.841 5.18239 266.237 26.7217L266.763 28.1267C324.159 6.66501 437.462 -18.7891 564.237 28.6274L564.763 27.2225ZM619.138 115.03L565.138 27.531L563.862 28.3188L617.862 115.818L619.138 115.03ZM792.249 449.971C804.273 256.079 684.011 153.356 618.882 114.779L618.118 116.07C682.989 154.493 802.727 256.77 790.751 449.878L792.249 449.971ZM829.196 542.146L792.196 449.646L790.804 450.203L827.804 542.703L829.196 542.146ZM702.986 744.996C753.083 702.413 808.184 628.283 829.228 542.603L827.772 542.245C806.816 627.566 751.917 701.436 702.014 743.853L702.986 744.996ZM619 745.174H702.5V743.674H619V745.174ZM211.562 745.033C381.932 867.8 552.309 796.132 619.454 745.021L618.546 743.828C551.691 794.717 382.068 866.049 212.438 743.816L211.562 745.033ZM128 745.174H212V743.674H128V745.174ZM1.27099 543.1C24.52 639.303 91.4389 715.434 127.525 745.004L128.475 743.844C92.5611 714.414 25.88 638.545 2.72901 542.748L1.27099 543.1ZM37.8029 450.648L1.30286 542.648L2.69714 543.201L39.1971 451.201L37.8029 450.648ZM211.603 114.788C51.2815 214.989 32.7428 361.317 37.7512 450.966L39.2488 450.882C34.2572 361.532 52.7185 215.86 212.397 116.06L211.603 114.788ZM265.862 27.0293L211.362 115.029L212.638 115.819L267.138 27.8191L265.862 27.0293ZM520.238 713.176C430.265 746.826 349.851 728.762 309.117 713.531L308.592 714.936C349.533 730.245 430.34 748.399 520.764 714.581L520.238 713.176ZM558.215 651.343L519.863 713.484L521.139 714.272L559.491 652.131L558.215 651.343ZM680.973 414.225C689.472 551.255 604.506 623.826 558.471 651.092L559.235 652.382C605.529 624.963 691.017 551.946 682.47 414.132L680.973 414.225ZM707.304 348.207L681.025 413.9L682.418 414.457L708.696 348.764L707.304 348.207ZM618.026 205.599C653.44 235.699 692.401 288.123 707.272 348.665L708.728 348.307C693.77 287.406 654.606 234.722 618.998 204.456L618.026 205.599ZM559.208 205.777H618.512V204.277H559.208V205.777ZM270.585 205.636C390.953 118.905 511.314 169.515 558.754 205.624L559.662 204.431C511.932 168.1 390.817 117.154 269.709 204.419L270.585 205.636ZM210.488 205.777H270.147V204.277H210.488V205.777ZM121.729 348.307C138.157 280.332 185.481 226.488 210.964 205.608L210.013 204.447C184.359 225.468 136.797 279.573 120.271 347.955L121.729 348.307ZM147.62 413.192L121.697 347.854L120.303 348.407L146.226 413.745L147.62 413.192ZM270.544 651.101C157.23 580.283 144.129 476.923 147.672 413.51L146.174 413.426C142.615 477.138 155.793 581.153 269.75 652.373L270.544 651.101ZM309.492 713.839L270.785 651.342L269.509 652.132L308.217 714.629L309.492 713.839Z" fill="url(#paint1_linear_153_3160)"/>
<path d="M564.16 27.9096C437.237 -19.564 323.805 5.92089 266.34 27.4092L211.873 115.359L277.333 37.4792C323.139 20.6554 442.433 -2.89778 553.166 37.4792L618.127 115.359L564.16 27.9096Z" fill="url(#paint2_linear_153_3160)"/>
<path d="M828 542.115L791.022 449.668L810.511 542.115C805.18 575.122 774.832 658.824 696.08 729.584L618.627 744H702.076C752.046 701.524 807.013 627.566 828 542.115Z" fill="url(#paint3_linear_153_3160)"/>
<path d="M127.924 744H211.873L133.42 729.584C72.957 681.611 27.4846 587.665 17.4906 542.615L38.4779 450.668L2 542.615C25.186 638.56 91.9455 714.517 127.924 744Z" fill="url(#paint4_linear_153_3160)"/>
<defs>
<linearGradient id="paint0_linear_153_3160" x1="415.25" y1="1" x2="415.25" y2="812.051" gradientUnits="userSpaceOnUse">
<stop stop-color="#21D4FD"/>
<stop offset="1" stop-color="#B721FF"/>
</linearGradient>
<linearGradient id="paint1_linear_153_3160" x1="415.25" y1="1" x2="415.25" y2="812.051" gradientUnits="userSpaceOnUse">
<stop stop-color="#21D4FD"/>
<stop offset="1" stop-color="#B721FF"/>
</linearGradient>
<linearGradient id="paint2_linear_153_3160" x1="415" y1="1" x2="414.75" y2="743.576" gradientUnits="userSpaceOnUse">
<stop stop-color="#21D4FD"/>
<stop offset="1" stop-color="#B721FF"/>
</linearGradient>
<linearGradient id="paint3_linear_153_3160" x1="415" y1="1" x2="414.75" y2="743.576" gradientUnits="userSpaceOnUse">
<stop stop-color="#21D4FD"/>
<stop offset="1" stop-color="#B721FF"/>
</linearGradient>
<linearGradient id="paint4_linear_153_3160" x1="415" y1="1" x2="414.75" y2="743.576" gradientUnits="userSpaceOnUse">
<stop stop-color="#21D4FD"/>
<stop offset="1" stop-color="#B721FF"/>
</linearGradient>
</defs>
</svg>
