<svg width="17" height="17" viewBox="0 0 17 17" fill="none" xmlns="http://www.w3.org/2000/svg">
<path d="M7.8965 11.2965C7.85995 11.3369 7.82589 11.3795 7.7945 11.424C7.76233 11.4714 7.73661 11.5228 7.718 11.577C7.6935 11.6252 7.67631 11.6767 7.667 11.73C7.66283 11.7866 7.66283 11.8434 7.667 11.9C7.66413 12.0115 7.68742 12.1221 7.735 12.223C7.77318 12.3285 7.83408 12.4243 7.9134 12.5036C7.99273 12.5829 8.08852 12.6438 8.194 12.682C8.29575 12.727 8.40576 12.7502 8.517 12.7502C8.62824 12.7502 8.73826 12.727 8.84 12.682C8.94548 12.6438 9.04128 12.5829 9.1206 12.5036C9.19992 12.4243 9.26083 12.3285 9.299 12.223C9.33675 12.1196 9.35407 12.0099 9.35 11.9C9.35065 11.7881 9.32921 11.6772 9.28691 11.5737C9.24461 11.4701 9.18228 11.3759 9.1035 11.2965C9.02448 11.2168 8.93047 11.1536 8.82689 11.1104C8.72331 11.0673 8.61221 11.0451 8.5 11.0451C8.38779 11.0451 8.27669 11.0673 8.17311 11.1104C8.06953 11.1536 7.97552 11.2168 7.8965 11.2965ZM8.5 0C6.81886 0 5.17547 0.498516 3.77766 1.43251C2.37984 2.3665 1.29037 3.69402 0.647028 5.24719C0.00368291 6.80036 -0.164645 8.50943 0.163329 10.1583C0.491303 11.8071 1.30085 13.3217 2.4896 14.5104C3.67834 15.6992 5.1929 16.5087 6.84174 16.8367C8.49057 17.1646 10.1996 16.9963 11.7528 16.353C13.306 15.7096 14.6335 14.6202 15.5675 13.2223C16.5015 11.8245 17 10.1811 17 8.5C17 7.38376 16.7801 6.27846 16.353 5.24719C15.9258 4.21592 15.2997 3.27889 14.5104 2.48959C13.7211 1.70029 12.7841 1.07419 11.7528 0.647024C10.7215 0.219859 9.61624 0 8.5 0V0ZM8.5 15.3C7.15509 15.3 5.84038 14.9012 4.72213 14.154C3.60387 13.4068 2.7323 12.3448 2.21762 11.1022C1.70295 9.85971 1.56828 8.49245 1.83066 7.17338C2.09304 5.85431 2.74068 4.64267 3.69168 3.69167C4.64267 2.74068 5.85432 2.09304 7.17339 1.83066C8.49246 1.56828 9.85971 1.70294 11.1022 2.21762C12.3448 2.73229 13.4068 3.60387 14.154 4.72212C14.9012 5.84038 15.3 7.15509 15.3 8.5C15.3 10.3035 14.5836 12.0331 13.3083 13.3083C12.0331 14.5836 10.3035 15.3 8.5 15.3V15.3ZM8.5 4.25C8.05211 4.24971 7.61204 4.3674 7.22408 4.59122C6.83611 4.81505 6.51395 5.13711 6.29 5.525C6.2285 5.62174 6.18721 5.72993 6.1686 5.84305C6.15 5.95617 6.15446 6.07188 6.18174 6.18323C6.20901 6.29457 6.25853 6.39925 6.3273 6.49097C6.39608 6.58268 6.4827 6.65954 6.58195 6.71691C6.6812 6.77428 6.79103 6.81098 6.90484 6.8248C7.01864 6.83862 7.13406 6.82928 7.24416 6.79734C7.35426 6.7654 7.45676 6.71152 7.54549 6.63894C7.63423 6.56636 7.70736 6.47658 7.7605 6.375C7.83539 6.24528 7.94323 6.13766 8.07309 6.06303C8.20295 5.9884 8.35022 5.9494 8.5 5.95C8.72544 5.95 8.94164 6.03955 9.10104 6.19896C9.26045 6.35836 9.35 6.57456 9.35 6.8C9.35 7.02543 9.26045 7.24163 9.10104 7.40104C8.94164 7.56044 8.72544 7.65 8.5 7.65C8.27457 7.65 8.05837 7.73955 7.89896 7.89896C7.73956 8.05836 7.65 8.27456 7.65 8.5V9.35C7.65 9.57543 7.73956 9.79163 7.89896 9.95104C8.05837 10.1104 8.27457 10.2 8.5 10.2C8.72544 10.2 8.94164 10.1104 9.10104 9.95104C9.26045 9.79163 9.35 9.57543 9.35 9.35V9.197C9.91217 8.99302 10.3848 8.59794 10.6852 8.08084C10.9856 7.56373 11.0947 6.9575 10.9934 6.3681C10.8921 5.77871 10.5869 5.24366 10.1311 4.85649C9.67537 4.46931 9.09801 4.25464 8.5 4.25V4.25Z" fill="#3F3F3F"/>
</svg>
