<svg width="17" height="17" viewBox="0 0 17 17" fill="none" xmlns="http://www.w3.org/2000/svg">
<path d="M16.6366 9.22602C16.363 9.04126 16.006 9.03912 15.7286 9.21906C14.8008 9.82315 13.7212 10.1423 12.6065 10.1423C9.43638 10.1423 6.85725 7.56315 6.85725 4.39325C6.85725 3.27878 7.17669 2.19912 7.78077 1.27102C7.96072 0.994146 7.95803 0.636936 7.77381 0.362737C7.58958 0.0890749 7.2613 -0.0469554 6.93516 0.0146298C2.91652 0.791179 0 4.33006 0 8.42913C0 13.1553 3.8446 17 8.57042 17C12.6694 17 16.2082 14.0834 16.985 10.0641C17.0477 9.74014 16.9106 9.41025 16.6366 9.22602ZM8.57042 15.3548C4.7518 15.3548 1.64516 12.2481 1.64516 8.42913C1.64516 5.73051 3.20946 3.33234 5.54465 2.19698C5.32509 2.90283 5.21208 3.64189 5.21208 4.39325C5.21208 8.47036 8.52918 11.7875 12.6065 11.7875C13.3578 11.7875 14.0971 11.6745 14.8027 11.455C13.6676 13.7905 11.2693 15.3548 8.57042 15.3548Z" fill="#4949EE"/>
</svg>
