<svg width="100%" height="100%" viewBox="0 0 17 17" fill="none" xmlns="http://www.w3.org/2000/svg">
<path d="M8.5 0C3.825 0 0 3.825 0 8.5C0 13.175 3.825 17 8.5 17C13.175 17 17 13.175 17 8.5C17 3.825 13.175 0 8.5 0ZM8.5 3.30556C9.53889 3.30556 10.3889 4.15556 10.3889 5.19444C10.3889 6.23333 9.53889 7.08333 8.5 7.08333C7.46111 7.08333 6.61111 6.23333 6.61111 5.19444C6.61111 4.15556 7.46111 3.30556 8.5 3.30556ZM3.77778 13.2222C3.77778 10.625 5.90278 8.5 8.5 8.5C11.0972 8.5 13.2222 10.625 13.2222 13.2222H3.77778Z" fill="#3F3F3F"/>
</svg>
