<svg width="17" height="17" viewBox="0 0 17 17" fill="none" xmlns="http://www.w3.org/2000/svg">
<path d="M0.0254277 5.88266C0.412318 4.74053 1.04964 3.69213 1.89058 2.80364C2.03277 2.6534 2.25587 2.59984 2.45561 2.66802L4.46528 3.35392C5.01012 3.53978 5.60964 3.26883 5.80435 2.74876C5.82349 2.69761 5.83824 2.64508 5.84843 2.59174L6.2313 0.585732C6.26936 0.386284 6.42984 0.228514 6.63758 0.186297C7.24541 0.0628076 7.86862 0 8.5 0C9.13099 0 9.75383 0.0627368 10.3613 0.18607C10.569 0.228245 10.7294 0.385915 10.7676 0.585293L11.1516 2.59165C11.2554 3.13497 11.8009 3.49509 12.3701 3.39602C12.4262 3.38627 12.4812 3.3722 12.5347 3.35395L14.5444 2.66802C14.7441 2.59984 14.9671 2.6534 15.1094 2.80364C15.9503 3.69213 16.5876 4.74053 16.9746 5.88266C17.0398 6.07534 16.9768 6.28658 16.8151 6.41763L15.1862 7.73773C14.7453 8.0952 14.6913 8.72627 15.0657 9.14726C15.1026 9.18865 15.1429 9.22711 15.1862 9.26224L16.8151 10.5824C16.9768 10.7134 17.0398 10.9246 16.9746 11.1173C16.5876 12.2595 15.9503 13.3079 15.1094 14.1963C14.9671 14.3465 14.7441 14.4001 14.5444 14.332L12.5347 13.6461C11.9899 13.4603 11.3903 13.7312 11.1956 14.2512C11.1765 14.3023 11.1618 14.3549 11.1515 14.4085L10.7676 16.4147C10.7294 16.6141 10.569 16.7717 10.3613 16.8139C9.75383 16.9372 9.13099 17 8.5 17C7.86862 17 7.24541 16.9372 6.63758 16.8136C6.42984 16.7714 6.26936 16.6137 6.2313 16.4143L5.84844 14.4083C5.74464 13.865 5.19907 13.5049 4.62987 13.604C4.57389 13.6137 4.51885 13.6278 4.46537 13.6461L2.45561 14.332C2.25587 14.4001 2.03277 14.3465 1.89058 14.1963C1.04964 13.3079 0.412318 12.2595 0.0254277 11.1173C-0.0398375 10.9246 0.0230917 10.7134 0.184828 10.5824L1.81372 9.26226C2.25476 8.90479 2.3087 8.27372 1.93422 7.85273C1.89739 7.81133 1.8571 7.77287 1.81374 7.73774L0.184828 6.41763C0.0230917 6.28658 -0.0398375 6.07534 0.0254277 5.88266ZM5.91286 8.49991C5.91286 9.86957 7.07108 10.9799 8.49982 10.9799C9.92856 10.9799 11.0868 9.86957 11.0868 8.49991C11.0868 7.13024 9.92856 6.01991 8.49982 6.01991C7.07108 6.01991 5.91286 7.13024 5.91286 8.49991Z" fill="#3F3F3F"/>
</svg>
