<svg width="9" height="10" viewBox="0 0 9 10" fill="none" xmlns="http://www.w3.org/2000/svg">
<path d="M8.05263 2.30762H4.96184V7.18333L5.823 6.44729C5.86698 6.4097 5.91919 6.37989 5.97665 6.35954C6.03411 6.3392 6.0957 6.32873 6.15789 6.32873C6.22009 6.32873 6.28168 6.3392 6.33914 6.35954C6.3966 6.37989 6.44881 6.4097 6.49279 6.44729C6.53677 6.48488 6.57165 6.52951 6.59546 6.57862C6.61926 6.62773 6.63151 6.68037 6.63151 6.73353C6.63151 6.78669 6.61926 6.83932 6.59546 6.88844C6.57165 6.93755 6.53677 6.98217 6.49279 7.01976L4.83489 8.43677C4.79101 8.47449 4.73882 8.50443 4.68135 8.52486C4.62388 8.54529 4.56225 8.55581 4.5 8.55581C4.43775 8.55581 4.37612 8.54529 4.31865 8.52486C4.26118 8.50443 4.20899 8.47449 4.16511 8.43677L2.50721 7.01976C2.46323 6.98217 2.42835 6.93755 2.40454 6.88844C2.38074 6.83932 2.36849 6.78669 2.36849 6.73353C2.36849 6.68037 2.38074 6.62773 2.40454 6.57862C2.42835 6.52951 2.46323 6.48488 2.50721 6.44729C2.55119 6.4097 2.6034 6.37989 2.66086 6.35954C2.71832 6.3392 2.77991 6.32873 2.84211 6.32873C2.9043 6.32873 2.96589 6.3392 3.02335 6.35954C3.08081 6.37989 3.13302 6.4097 3.177 6.44729L4.01447 7.16308V2.30762H0.947368C0.696111 2.30762 0.455144 2.39293 0.277478 2.54478C0.0998117 2.69663 0 2.90258 0 3.11733V9.19021C0 9.40496 0.0998117 9.61091 0.277478 9.76276C0.455144 9.91462 0.696111 9.99992 0.947368 9.99992H8.05263C8.30389 9.99992 8.54486 9.91462 8.72252 9.76276C8.90019 9.61091 9 9.40496 9 9.19021V3.11733C9 2.90258 8.90019 2.69663 8.72252 2.54478C8.54486 2.39293 8.30389 2.30762 8.05263 2.30762V2.30762Z" fill="white" fill-opacity="0.87"/>
<path d="M4.96777 2.30769V0.384615C4.96777 0.282609 4.91688 0.184781 4.83249 0.112651C4.7481 0.0405218 4.61954 0 4.5002 0C4.38085 0 4.25641 0.0405218 4.17202 0.112651C4.08763 0.184781 4.01855 0.282609 4.01855 0.384615V2.30769H4.96777Z" fill="white" fill-opacity="0.87"/>
</svg>
