<svg width="10" height="10" viewBox="0 0 10 10" fill="none" xmlns="http://www.w3.org/2000/svg">
<path d="M8.5 0H1.5C1.10218 0 0.720644 0.166353 0.43934 0.462463C0.158035 0.758573 0 1.16018 0 1.57895V9.47368C0.000152678 9.56695 0.0238444 9.65849 0.0686502 9.73895C0.113456 9.8194 0.177767 9.88588 0.255 9.93158C0.329728 9.97616 0.414106 9.99972 0.5 10C0.589742 9.99997 0.677822 9.97452 0.755 9.92632L3 8.49474C3.08298 8.44273 3.1785 8.41714 3.275 8.42105H8.5C8.89782 8.42105 9.27936 8.2547 9.56066 7.95859C9.84197 7.66248 10 7.26087 10 6.84211V1.57895C10 1.16018 9.84197 0.758573 9.56066 0.462463C9.27936 0.166353 8.89782 0 8.5 0ZM3 4.73684C2.90111 4.73684 2.80444 4.70597 2.72221 4.64814C2.63999 4.59031 2.5759 4.50811 2.53806 4.41194C2.50022 4.31577 2.49031 4.20994 2.50961 4.10785C2.5289 4.00575 2.57652 3.91197 2.64645 3.83836C2.71637 3.76476 2.80546 3.71463 2.90245 3.69432C2.99945 3.67402 3.09998 3.68444 3.19134 3.72427C3.2827 3.76411 3.36079 3.83157 3.41573 3.91812C3.47068 4.00467 3.5 4.10643 3.5 4.21053C3.5 4.35011 3.44732 4.48398 3.35355 4.58269C3.25979 4.68139 3.13261 4.73684 3 4.73684ZM5 4.73684C4.90111 4.73684 4.80444 4.70597 4.72221 4.64814C4.63999 4.59031 4.5759 4.50811 4.53806 4.41194C4.50022 4.31577 4.49031 4.20994 4.50961 4.10785C4.5289 4.00575 4.57652 3.91197 4.64645 3.83836C4.71637 3.76476 4.80546 3.71463 4.90245 3.69432C4.99945 3.67402 5.09998 3.68444 5.19134 3.72427C5.2827 3.76411 5.36079 3.83157 5.41573 3.91812C5.47068 4.00467 5.5 4.10643 5.5 4.21053C5.5 4.35011 5.44732 4.48398 5.35355 4.58269C5.25979 4.68139 5.13261 4.73684 5 4.73684ZM7 4.73684C6.90111 4.73684 6.80444 4.70597 6.72221 4.64814C6.63999 4.59031 6.5759 4.50811 6.53806 4.41194C6.50022 4.31577 6.49031 4.20994 6.50961 4.10785C6.5289 4.00575 6.57652 3.91197 6.64645 3.83836C6.71637 3.76476 6.80546 3.71463 6.90246 3.69432C6.99945 3.67402 7.09998 3.68444 7.19134 3.72427C7.2827 3.76411 7.36079 3.83157 7.41573 3.91812C7.47068 4.00467 7.5 4.10643 7.5 4.21053C7.5 4.35011 7.44732 4.48398 7.35355 4.58269C7.25979 4.68139 7.13261 4.73684 7 4.73684Z" fill="white" fill-opacity="0.87"/>
</svg>
